<svg xmlns="http://www.w3.org/2000/svg" xmlns:xlink="http://www.w3.org/1999/xlink" width="500" zoomAndPan="magnify"
    viewBox="0 0 375 374.999991" height="500" preserveAspectRatio="xMidYMid meet" version="1.0">
    <defs>
        <clipPath id="2da3f19cb0">
            <path d="M 83 273.285156 L 87 273.285156 L 87 284 L 83 284 Z M 83 273.285156 " clip-rule="nonzero" />
        </clipPath>
        <clipPath id="924a119d16">
            <path d="M 99 273.285156 L 104 273.285156 L 104 283 L 99 283 Z M 99 273.285156 " clip-rule="nonzero" />
        </clipPath>
        <clipPath id="d45cec84ad">
            <path d="M 72.296875 282 L 116.546875 282 L 116.546875 308.535156 L 72.296875 308.535156 Z M 72.296875 282 "
                clip-rule="nonzero" />
        </clipPath>
    </defs>
    <g id="swing">
        <path stroke-linecap="butt" transform="matrix(0, -0.75, 0.75, 0, 94.181754, 273.285685)" fill="none"
            stroke-linejoin="miter" d="M 0.000705339 0.502454 L 452.938235 0.502454 " stroke="#ffbd59" stroke-width="1"
            stroke-opacity="1" stroke-miterlimit="4" />
        <g clip-path="url(#2da3f19cb0)">
            <path fill="#ffbd59"
                d="M 83.75 274.882812 C 83.539062 276.015625 83.671875 277.28125 83.6875 278.441406 C 83.703125 279.664062 83.75 280.851562 83.855469 282.058594 C 83.960938 283.21875 85.933594 283.386719 86.175781 282.226562 C 86.460938 280.914062 86.597656 279.691406 86.566406 278.367188 C 86.523438 277.070312 86.476562 275.667969 85.980469 274.460938 C 85.785156 273.996094 85.179688 273.738281 84.714844 273.828125 C 84.15625 273.933594 83.855469 274.371094 83.75 274.882812 Z M 83.75 274.882812 "
                fill-opacity="1" fill-rule="nonzero" />
        </g>
        <g clip-path="url(#924a119d16)">
            <path fill="#ffbd59"
                d="M 100.132812 274.492188 C 99.679688 275.398438 99.863281 276.738281 99.90625 277.734375 C 99.953125 278.894531 100.085938 279.964844 100.390625 281.078125 C 100.796875 282.601562 102.726562 282.375 103.027344 280.929688 C 103.28125 279.722656 103.296875 278.621094 103.164062 277.402344 C 103.042969 276.300781 102.9375 274.988281 102.226562 274.085938 C 101.59375 273.285156 100.507812 273.722656 100.132812 274.492188 Z M 100.132812 274.492188 "
                fill-opacity="1" fill-rule="nonzero" />
        </g>
        <g clip-path="url(#d45cec84ad)">
            <path fill="#ffbd59"
                d="M 72.382812 293.621094 C 72.339844 295.894531 73.484375 298.035156 74.75 299.859375 C 76 301.652344 77.597656 303.222656 79.394531 304.472656 C 82.8125 306.855469 87.003906 308.210938 91.164062 308.390625 C 95.386719 308.570312 99.710938 307.699219 103.417969 305.648438 C 107.113281 303.613281 110.230469 300.613281 112.507812 297.054688 C 113.757812 295.097656 114.769531 292.957031 115.476562 290.742188 C 115.855469 289.59375 116.15625 288.40625 116.351562 287.214844 C 116.53125 286.039062 116.773438 284.695312 116.394531 283.550781 C 116.035156 282.464844 114.707031 282.316406 114.195312 283.386719 C 113.789062 284.246094 113.742188 285.195312 113.546875 286.128906 C 113.351562 287.046875 113.140625 287.96875 112.871094 288.871094 C 112.355469 290.605469 111.664062 292.292969 110.773438 293.859375 C 108.980469 297.042969 106.507812 299.890625 103.433594 301.910156 C 97.34375 305.890625 89.113281 306.429688 82.601562 303.085938 C 80.703125 302.105469 78.941406 300.792969 77.492188 299.242188 C 75.851562 297.476562 74.917969 295.429688 73.785156 293.332031 C 73.453125 292.746094 72.398438 292.851562 72.382812 293.621094 Z M 72.382812 293.621094 "
                fill-opacity="1" fill-rule="nonzero" />
        </g>
    </g>
</svg>