<svg fill="#000000" xmlns="http://www.w3.org/2000/svg"  viewBox="0 0 32 32" width="32px" height="32px"><path d="M 19 3 C 13.488666 3 9 7.4886661 9 13 C 9 15.389904 9.9578129 17.499973 11.363281 19.222656 L 3.2929688 27.292969 L 4.7070312 28.707031 L 12.777344 20.636719 C 14.500027 22.042187 16.610096 23 19 23 C 24.511334 23 29 18.511334 29 13 C 29 7.4886661 24.511334 3 19 3 z M 19 5 C 23.430666 5 27 8.5693339 27 13 C 27 17.430666 23.430666 21 19 21 C 14.569334 21 11 17.430666 11 13 C 11 8.5693339 14.569334 5 19 5 z M 16.414062 9 L 15 10.414062 L 17.585938 13 L 15 15.585938 L 16.414062 17 L 19 14.414062 L 21.585938 17 L 23 15.585938 L 20.414062 13 L 23 10.414062 L 21.585938 9 L 19 11.585938 L 16.414062 9 z"/></svg>