<svg xmlns="http://www.w3.org/2000/svg" xmlns:xlink="http://www.w3.org/1999/xlink" width="1366" zoomAndPan="magnify" viewBox="0 0 1024.5 576" height="768" preserveAspectRatio="xMidYMid meet" version="1.0"><defs><clipPath id="ed83ab015f"><path d="M 460 164.898438 L 466 164.898438 L 466 176 L 460 176 Z M 460 164.898438 " clip-rule="nonzero"/></clipPath><clipPath id="03dd239c5a"><path d="M 427.015625 178 L 486.984375 178 L 486.984375 197.132812 L 427.015625 197.132812 Z M 427.015625 178 " clip-rule="nonzero"/></clipPath><clipPath id="42fd8ee3ab"><path d="M 216 0.140625 L 219 0.140625 L 219 323 L 216 323 Z M 216 0.140625 " clip-rule="nonzero"/></clipPath><clipPath id="a79cd7f1cc"><path d="M 454 0.140625 L 457 0.140625 L 457 164 L 454 164 Z M 454 0.140625 " clip-rule="nonzero"/></clipPath><clipPath id="e01a4e82ff"><path d="M 873 0.140625 L 875 0.140625 L 875 182 L 873 182 Z M 873 0.140625 " clip-rule="nonzero"/></clipPath><clipPath id="963767a69e"><path d="M 221 322.09375 L 236 322.09375 L 236 335 L 221 335 Z M 221 322.09375 " clip-rule="nonzero"/></clipPath><clipPath id="afdc225115"><path d="M 193 339 L 241.707031 339 L 241.707031 360 L 193 360 Z M 193 339 " clip-rule="nonzero"/></clipPath><clipPath id="4a61ff1fb5"><path d="M 725.425781 457 L 792.894531 457 L 792.894531 484 L 725.425781 484 Z M 725.425781 457 " clip-rule="nonzero"/></clipPath><clipPath id="5548c55463"><path d="M 844.550781 194 L 902 194 L 902 222 L 844.550781 222 Z M 844.550781 194 " clip-rule="nonzero"/></clipPath><clipPath id="ab786c657e"><path d="M 877 185.078125 L 888 185.078125 L 888 193 L 877 193 Z M 877 185.078125 " clip-rule="nonzero"/></clipPath><clipPath id="65ed28120d"><path d="M 758 0.140625 L 760 0.140625 L 760 441 L 758 441 Z M 758 0.140625 " clip-rule="nonzero"/></clipPath><clipPath id="f89a65a9f2"><path d="M 73 0.140625 L 76 0.140625 L 76 484 L 73 484 Z M 73 0.140625 " clip-rule="nonzero"/></clipPath><clipPath id="881f215dbd"><path d="M 43.023438 496 L 105.992188 496 L 105.992188 533 L 43.023438 533 Z M 43.023438 496 " clip-rule="nonzero"/></clipPath></defs><path fill="#ffbd59" d="M 461.664062 165.128906 C 461.488281 165.195312 461.332031 165.285156 461.199219 165.394531 C 461.066406 165.527344 460.933594 165.703125 460.847656 165.949219 C 460.757812 166.191406 460.691406 166.457031 460.691406 166.789062 C 460.691406 167.121094 460.757812 167.542969 460.867188 168.121094 C 460.980469 168.671875 461.199219 169.515625 461.53125 170.601562 C 461.867188 171.6875 462.152344 172.574219 462.417969 173.238281 C 462.664062 173.902344 462.863281 174.300781 463.015625 174.457031 C 463.148438 174.609375 463.285156 174.722656 463.371094 174.765625 C 463.460938 174.832031 463.570312 174.855469 463.660156 174.898438 C 463.75 174.921875 463.925781 174.945312 464.191406 174.921875 C 464.433594 174.898438 464.632812 174.878906 464.789062 174.8125 C 464.921875 174.742188 465.054688 174.675781 465.1875 174.566406 C 465.320312 174.457031 465.410156 174.34375 465.476562 174.210938 C 465.542969 174.078125 465.609375 173.925781 465.652344 173.703125 C 465.699219 173.503906 465.699219 173.125 465.652344 172.617188 C 465.609375 172.109375 465.519531 171.488281 465.367188 170.800781 C 465.210938 170.113281 464.988281 169.339844 464.679688 168.453125 C 464.367188 167.566406 464.101562 166.921875 463.882812 166.503906 C 463.660156 166.082031 463.460938 165.769531 463.285156 165.59375 C 463.105469 165.417969 462.949219 165.285156 462.796875 165.21875 C 462.640625 165.152344 462.464844 165.105469 462.242188 165.085938 C 462.019531 165.0625 461.820312 165.085938 461.664062 165.128906 Z M 461.664062 165.128906 " fill-opacity="1" fill-rule="evenodd"/><g clip-path="url(#ed83ab015f)"><path stroke-linecap="round" transform="matrix(0.221558, 0, 0, 0.221558, 423.380586, 148.245763)" fill="none" stroke-linejoin="round" d="M 172.791943 76.201834 C 171.998556 76.501558 171.293324 76.907067 170.693877 77.400729 C 170.094429 78.000177 169.494982 78.793563 169.107104 79.904304 C 168.701596 80.997414 168.401872 82.196308 168.401872 83.694927 C 168.401872 85.193545 168.701596 87.097672 169.195258 89.707031 C 169.706552 92.192975 170.693877 96.001229 172.192495 100.902593 C 173.708744 105.803957 174.995793 109.80615 176.194688 112.803387 C 177.305429 115.800624 178.2046 117.598966 178.892201 118.304198 C 179.491649 118.9918 180.108727 119.503093 180.496605 119.697032 C 180.902113 119.996756 181.395776 120.10254 181.801284 120.296479 C 182.206793 120.402264 183.000179 120.508049 184.199074 120.402264 C 185.292184 120.296479 186.191355 120.208325 186.896587 119.908602 C 187.496034 119.591247 188.095482 119.291523 188.694929 118.797861 C 189.294377 118.304198 189.699885 117.792905 189.999609 117.193457 C 190.299333 116.59401 190.599056 115.906409 190.792995 114.901453 C 191.004565 114.002282 191.004565 112.292094 190.792995 110.000089 C 190.599056 107.708084 190.193548 104.904786 189.505946 101.801764 C 188.800714 98.698742 187.795758 95.207843 186.402925 91.20565 C 184.99246 87.203457 183.793565 84.294374 182.80624 82.407878 C 181.801284 80.503751 180.902113 79.093287 180.108727 78.2999 C 179.29771 77.506514 178.592478 76.907067 177.904876 76.607343 C 177.199644 76.307619 176.406258 76.09605 175.401302 76.007896 C 174.396346 75.902111 173.497175 76.007896 172.791943 76.201834 Z M 172.791943 76.201834 " stroke="#000000" stroke-width="1" stroke-opacity="1" stroke-miterlimit="10"/></g><path stroke-linecap="round" transform="matrix(0.221558, 0, 0, 0.221558, 423.380586, 148.245763)" fill-opacity="1" fill="#ffbd59" fill-rule="evenodd" stroke-linejoin="round" d="M 97.102894 94.202887 C 96.591601 94.396826 95.992153 94.802334 95.304552 95.295997 C 94.59932 95.895444 94.105657 96.494892 93.700148 97.200124 C 93.29464 97.905356 93.100701 98.592958 92.906762 99.192405 C 92.800977 99.791852 92.695193 101.202317 92.695193 103.300383 C 92.695193 105.398449 93.100701 108.607255 93.894087 113.103111 C 94.705104 117.493181 95.604275 121.40722 96.697385 124.598396 C 97.702341 127.807202 98.795451 130.504716 99.800407 132.708566 C 100.893517 134.894786 101.704534 136.199466 102.392136 136.904698 C 102.991583 137.504146 103.608661 137.997808 104.102324 138.191747 C 104.595986 138.491471 105.10728 138.597256 105.706727 138.791194 C 106.306174 138.896979 106.905622 139.002764 107.593223 138.896979 C 108.298456 138.791194 109.091842 138.597256 110.202583 138.103593 C 111.207538 137.698084 112.000925 137.204422 112.494587 136.604975 C 113.005881 136.005527 113.393758 135.300295 113.693482 134.506909 C 113.993206 133.695892 114.098991 132.391212 113.993206 130.698655 C 113.905052 129.006097 113.305604 125.497567 112.194864 120.296479 C 111.101754 115.095392 110.096798 110.793475 109.197627 107.40836 C 108.298456 104.005615 107.2935 101.50204 106.394329 99.597913 C 105.495157 97.799571 104.595986 96.406738 103.608661 95.595721 C 102.603705 94.802334 101.404811 94.308672 99.994346 94.202887 C 98.495728 93.903163 97.596557 93.991317 97.102894 94.202887 Z M 97.102894 94.202887 " stroke="#000000" stroke-width="1" stroke-opacity="1" stroke-miterlimit="10"/><g clip-path="url(#03dd239c5a)"><path stroke-linecap="round" transform="matrix(0.221558, 0, 0, 0.221558, 423.380586, 148.245763)" fill-opacity="1" fill="#ffbd59" fill-rule="evenodd" stroke-linejoin="round" d="M 278.700192 136.199466 C 277.695236 136.693129 275.80874 138.597256 273.093596 141.806062 C 270.396083 144.997238 267.698569 147.994475 264.895271 150.691988 C 262.197758 153.407132 259.694184 155.804922 257.296394 157.902988 C 255.004389 160.001054 251.901367 162.504628 248.093113 165.501865 C 244.30249 168.499102 240.300297 171.408185 235.998381 174.193852 C 231.696464 176.99715 226.706946 179.994387 220.994565 183.097409 C 215.299815 186.200431 210.098727 188.792159 205.303148 190.907856 C 200.595723 193.005922 195.994083 194.804264 191.498227 196.408667 C 187.108157 197.99544 182.206793 199.494058 176.794135 200.992677 C 171.399109 202.491295 166.198021 203.795975 161.102718 204.906716 C 156.007416 205.999826 150.594758 206.898997 145.005793 207.692383 C 139.399197 208.5034 133.598662 208.997062 127.604188 209.402571 C 121.697868 209.80808 115.703394 209.896234 109.691289 209.896234 C 103.696815 209.80808 97.596557 209.59651 91.496298 208.997062 C 85.396039 208.5034 79.595504 207.798168 74.200477 207.004781 C 68.805451 206.193764 64.098026 205.294593 59.901894 204.395422 C 55.705762 203.496251 51.703569 202.59708 47.895315 201.592124 C 43.998907 200.604799 40.807732 199.599843 38.092587 198.806457 C 35.395074 197.907286 33.297008 197.307838 31.604451 197.008115 C 29.894263 196.708391 27.708043 196.496821 25.098684 196.408667 C 22.40117 196.302882 20.497043 196.408667 19.192364 196.708391 C 17.905315 197.008115 17.200083 197.307838 17.094298 197.607562 C 17.006144 197.99544 17.305868 198.700672 18.099254 199.793782 C 18.89264 200.904523 19.703657 201.803694 20.602828 202.59708 C 21.396215 203.408097 22.806679 204.307268 24.605021 205.506163 C 26.403363 206.705058 27.796197 207.498444 28.801153 207.992107 C 29.700324 208.397615 32.292052 209.296786 36.593969 210.601466 C 40.807732 211.906145 45.197802 212.999255 49.605504 214.092365 C 53.995574 215.203106 58.702999 216.208062 63.692517 217.107233 C 68.699666 218.006404 73.706815 218.79979 78.608179 219.505023 C 83.491912 220.10447 88.904569 220.598133 94.705104 221.003641 C 100.505639 221.391519 107.804793 221.497304 116.408626 221.391519 C 125.100613 221.303365 133.104999 220.792071 140.492307 219.998685 C 147.897245 219.205299 154.808521 218.094558 161.208503 216.895663 C 167.608486 215.608615 174.202407 214.004211 181.007898 212.100084 C 187.795758 210.107803 194.707034 207.798168 201.706464 205.100654 C 208.705894 202.403141 215.19403 199.405904 221.400074 196.302882 C 227.606117 193.094076 233.600591 189.69133 239.295341 186.094646 C 245.095876 182.392177 249.503578 179.39494 252.6066 177.102935 C 255.691991 174.7933 259.094736 171.901847 262.90299 168.693041 C 266.693613 165.39608 270.096359 162.293058 273.093596 159.295821 C 276.108464 156.298584 278.999916 153.195563 281.803214 149.898602 C 284.606512 146.601641 286.193284 144.591729 286.493008 143.904128 C 286.792732 143.198896 287.004301 142.40551 287.004301 141.400554 C 287.004301 140.501383 286.898517 139.707996 286.598793 139.108549 C 286.299069 138.491471 285.999346 137.997808 285.593837 137.504146 C 285.205959 136.992852 284.694666 136.604975 284.306788 136.393405 C 283.90128 136.093681 283.107893 136.005527 281.891368 135.793957 C 280.692473 135.494234 279.705148 135.705803 278.700192 136.199466 Z M 278.700192 136.199466 " stroke="#000000" stroke-width="1" stroke-opacity="1" stroke-miterlimit="10"/></g><g clip-path="url(#42fd8ee3ab)"><path stroke-linecap="butt" transform="matrix(0, -0.749634, 0.749634, 0, 216.507816, 322.092314)" fill="none" stroke-linejoin="miter" d="M -0.00191498 1.000483 L 579.520386 1.000483 " stroke="#ffbd59" stroke-width="2" stroke-opacity="1" stroke-miterlimit="4"/></g><g clip-path="url(#a79cd7f1cc)"><path stroke-linecap="butt" transform="matrix(0, -0.749634, 0.749634, 0, 454.794382, 162.539559)" fill="none" stroke-linejoin="miter" d="M 0.000661674 0.998603 L 304.482535 0.998603 " stroke="#ffbd59" stroke-width="2" stroke-opacity="1" stroke-miterlimit="4"/></g><g clip-path="url(#e01a4e82ff)"><path stroke-linecap="butt" transform="matrix(0, -0.749634, 0.749634, 0, 873.240289, 181.187512)" fill="none" stroke-linejoin="miter" d="M 0.0000159201 0.99781 L 304.48189 0.99781 " stroke="#ffbd59" stroke-width="2" stroke-opacity="1" stroke-miterlimit="4"/></g><path fill="#ffbd59" d="M 205.386719 335.550781 C 205.011719 334.914062 204.503906 334.480469 204 333.9375 C 203.457031 333.359375 202.988281 332.722656 202.539062 332.066406 C 201.734375 330.882812 200.890625 329.515625 200.476562 328.128906 C 200.347656 327.71875 200.140625 326.667969 200.777344 326.519531 C 201.300781 326.386719 201.863281 327.324219 202.050781 327.660156 C 202.726562 328.9375 203.101562 330.230469 204.355469 331.070312 C 204.898438 331.445312 205.835938 331.222656 206.023438 330.527344 C 206.34375 329.273438 207.074219 328.203125 208.179688 327.492188 C 208.757812 327.117188 209.394531 326.875 210.070312 326.78125 C 210.164062 326.761719 210.6875 326.648438 210.671875 326.632812 C 210.914062 326.742188 210.632812 327.679688 210.597656 327.847656 C 210.128906 329.328125 208.757812 330.679688 207.710938 331.765625 C 206.566406 332.945312 205.332031 333.996094 204 334.949219 C 202.761719 335.832031 204.355469 337.707031 205.574219 336.75 C 207.449219 335.289062 209.152344 333.601562 210.613281 331.726562 C 211.851562 330.136719 213.574219 327.847656 212.65625 325.710938 C 211.796875 323.726562 208.816406 324.570312 207.390625 325.375 C 205.722656 326.332031 204.429688 327.925781 203.945312 329.816406 C 204.503906 329.628906 205.050781 329.441406 205.613281 329.273438 C 204.84375 328.730469 204.582031 327.738281 204.207031 326.914062 C 203.792969 326.011719 203.195312 325.132812 202.371094 324.605469 C 200.457031 323.371094 198.191406 324.625 197.871094 326.78125 C 197.574219 328.824219 199.054688 330.996094 200.121094 332.609375 C 201.132812 334.109375 202.78125 336.355469 204.75 336.507812 C 205.21875 336.542969 205.648438 336 205.386719 335.550781 Z M 205.386719 335.550781 " fill-opacity="1" fill-rule="nonzero"/><g clip-path="url(#963767a69e)"><path fill="#ffbd59" d="M 229.054688 333.5625 C 227.441406 331.183594 225.191406 329.3125 224.21875 326.5 C 224.125 326.21875 223.769531 325.207031 224.164062 324.964844 C 224.535156 324.738281 225.117188 325.246094 225.34375 325.488281 C 226.261719 326.519531 226.46875 328.019531 227.441406 329.085938 C 228.078125 329.777344 229.183594 329.367188 229.316406 328.46875 C 229.484375 327.210938 230.214844 326.070312 231.28125 325.394531 C 231.65625 325.167969 232.292969 324.777344 232.746094 324.90625 C 233.417969 325.09375 233.457031 326.011719 233.382812 326.554688 C 233.023438 329.367188 230.664062 331.351562 228.527344 332.871094 C 227.589844 333.546875 228.640625 335.0625 229.652344 334.539062 C 231.46875 333.601562 233.082031 332.046875 234.167969 330.324219 C 235.21875 328.636719 236.191406 326.164062 235.125 324.269531 C 234.054688 322.359375 231.902344 322.488281 230.234375 323.519531 C 228.546875 324.589844 227.460938 326.3125 227.199219 328.28125 C 227.816406 328.074219 228.433594 327.867188 229.070312 327.660156 C 228.398438 326.914062 228.132812 325.917969 227.683594 325.039062 C 227.253906 324.195312 226.65625 323.5 225.8125 323.050781 C 224.070312 322.132812 221.96875 323.015625 221.761719 325.074219 C 221.578125 326.96875 222.8125 328.898438 223.882812 330.339844 C 225.042969 331.914062 226.578125 333.734375 228.527344 334.332031 C 229.015625 334.539062 229.332031 333.976562 229.054688 333.5625 Z M 229.054688 333.5625 " fill-opacity="1" fill-rule="nonzero"/></g><g clip-path="url(#afdc225115)"><path fill="#ffbd59" d="M 193 342.484375 C 193.074219 347.972656 196.261719 353.257812 200.851562 356.21875 C 204.28125 358.410156 208.554688 359.308594 212.5625 359.574219 C 220.621094 360.097656 229.410156 357.960938 235.441406 352.378906 C 238.742188 349.304688 241.53125 344.808594 241.53125 340.160156 C 241.53125 339.261719 240.203125 338.847656 239.902344 339.824219 C 239.320312 341.695312 238.796875 343.550781 237.898438 345.3125 C 237.109375 346.867188 236.097656 348.328125 234.878906 349.585938 C 232.332031 352.246094 229.109375 354.101562 225.679688 355.375 C 218.914062 357.847656 210.933594 357.941406 204.167969 355.320312 C 198.921875 353.277344 195.003906 347.9375 194.238281 342.410156 C 194.144531 341.714844 192.980469 341.769531 193 342.484375 Z M 193 342.484375 " fill-opacity="1" fill-rule="nonzero"/></g><path fill="#ffbd59" d="M 771.179688 440.308594 C 768.785156 442.015625 767.460938 445.023438 766.535156 447.722656 C 766.15625 448.8125 766.9375 450.1875 768.148438 450.210938 C 770.113281 450.257812 772.078125 450.28125 774.023438 450.304688 C 775.773438 450.351562 778.121094 450.707031 779.707031 449.878906 C 780.65625 449.382812 780.679688 448.171875 779.871094 447.535156 C 778.402344 446.398438 775.871094 446.46875 774.09375 446.398438 C 772.03125 446.324219 769.972656 446.347656 767.933594 446.515625 C 768.644531 447.320312 769.355469 448.148438 770.042969 448.957031 C 770.679688 446.324219 772.007812 443.980469 772.789062 441.398438 C 773.121094 440.378906 771.984375 439.742188 771.179688 440.308594 Z M 771.179688 440.308594 " fill-opacity="1" fill-rule="nonzero"/><g clip-path="url(#4a61ff1fb5)"><path fill="#ffbd59" d="M 725.980469 466.792969 C 728.113281 471.769531 732.421875 475.296875 737.066406 477.855469 C 742.230469 480.699219 747.917969 482.59375 753.742188 483.445312 C 765.042969 485.082031 776.960938 482.074219 785.0625 473.78125 C 789.0625 469.683594 792.214844 464.304688 792.476562 458.476562 C 792.546875 457.007812 790.460938 456.535156 789.941406 457.957031 C 788.378906 462.199219 786.246094 466.175781 783.140625 469.519531 C 780.0625 472.808594 776.34375 475.320312 772.148438 477.003906 C 762.199219 481.007812 750.402344 479.65625 740.761719 475.441406 C 735.714844 473.191406 731.332031 469.800781 727.660156 465.679688 C 726.855469 464.804688 725.53125 465.75 725.980469 466.792969 Z M 725.980469 466.792969 " fill-opacity="1" fill-rule="nonzero"/></g><path fill="#ffbd59" d="M 742.207031 443.03125 C 740.832031 446.089844 740.621094 450.09375 741.664062 453.289062 C 742.113281 454.640625 744.457031 454.878906 744.433594 453.125 C 744.433594 451.441406 744.246094 449.761719 744.148438 448.078125 C 744.054688 446.421875 744.03125 444.785156 743.839844 443.152344 C 743.746094 442.25 742.515625 442.347656 742.207031 443.03125 Z M 742.207031 443.03125 " fill-opacity="1" fill-rule="nonzero"/><g clip-path="url(#5548c55463)"><path fill="#ffbd59" d="M 844.792969 206.683594 C 845.789062 209.046875 847.449219 210.890625 849.332031 212.625 C 851.214844 214.363281 853.300781 215.875 855.515625 217.148438 C 859.890625 219.660156 864.910156 221.191406 869.929688 221.578125 C 879.820312 222.316406 889.382812 218.089844 895.695312 210.46875 C 898.941406 206.554688 901.933594 201.015625 901.492188 195.777344 C 901.398438 194.632812 899.625 194.59375 899.3125 195.609375 C 898.648438 197.675781 898.203125 199.761719 897.394531 201.773438 C 896.582031 203.824219 895.492188 205.707031 894.199219 207.441406 C 891.652344 210.875 888.273438 213.695312 884.472656 215.636719 C 876.261719 219.84375 866.53125 219.234375 858.375 215.15625 C 856.011719 213.972656 853.816406 212.535156 851.710938 210.929688 C 849.625 209.339844 847.800781 207.441406 845.730469 205.816406 C 845.195312 205.390625 844.550781 206.109375 844.792969 206.683594 Z M 844.792969 206.683594 " fill-opacity="1" fill-rule="nonzero"/></g><path fill="#ffbd59" d="M 853.722656 189.722656 C 853.578125 192.582031 856.75 194.6875 859.390625 194.484375 C 862.121094 194.261719 864.78125 191.546875 864.410156 188.707031 C 864.246094 187.433594 862.527344 187.746094 862.324219 188.835938 C 862.160156 189.757812 861.992188 190.535156 861.328125 191.273438 C 860.757812 191.917969 859.980469 192.398438 859.132812 192.527344 C 857.027344 192.839844 855.570312 191.234375 854.683594 189.554688 C 854.460938 189.113281 853.761719 189.203125 853.722656 189.722656 Z M 853.722656 189.722656 " fill-opacity="1" fill-rule="nonzero"/><g clip-path="url(#ab786c657e)"><path fill="#ffbd59" d="M 877.625 188.132812 C 877.164062 189.390625 878.050781 190.792969 878.953125 191.605469 C 880.007812 192.5625 881.355469 193.042969 882.773438 192.894531 C 885.929688 192.601562 888.128906 189.316406 887.222656 186.289062 C 886.871094 185.089844 885.101562 185.382812 885.285156 186.65625 C 885.597656 188.761719 884.714844 190.773438 882.40625 191.070312 C 881.5 191.179688 880.578125 190.867188 879.894531 190.238281 C 879.195312 189.609375 878.917969 188.707031 878.382812 187.96875 C 878.199219 187.710938 877.738281 187.839844 877.625 188.132812 Z M 877.625 188.132812 " fill-opacity="1" fill-rule="nonzero"/></g><g clip-path="url(#65ed28120d)"><path stroke-linecap="butt" transform="matrix(0, -0.749634, 0.749634, 0, 758.289523, 439.737227)" fill="none" stroke-linejoin="miter" d="M -0.00140583 0.999874 L 644.01069 0.999874 " stroke="#ffbd59" stroke-width="2" stroke-opacity="1" stroke-miterlimit="4"/></g><g clip-path="url(#f89a65a9f2)"><path stroke-linecap="butt" transform="matrix(0, -0.749634, 0.749634, 0, 73.905864, 482.907948)" fill="none" stroke-linejoin="miter" d="M 0.00226567 1.001003 L 644.009151 1.001003 " stroke="#ffbd59" stroke-width="2" stroke-opacity="1" stroke-miterlimit="4"/></g><path fill="#ffbd59" d="M 59.296875 485.183594 C 58.996094 486.789062 59.191406 488.589844 59.210938 490.238281 C 59.234375 491.972656 59.296875 493.667969 59.445312 495.378906 C 59.597656 497.03125 62.402344 497.265625 62.746094 495.617188 C 63.152344 493.75 63.347656 492.015625 63.304688 490.132812 C 63.238281 488.289062 63.175781 486.296875 62.46875 484.582031 C 62.1875 483.917969 61.332031 483.554688 60.667969 483.683594 C 59.875 483.832031 59.445312 484.453125 59.296875 485.183594 Z M 59.296875 485.183594 " fill-opacity="1" fill-rule="nonzero"/><path fill="#ffbd59" d="M 82.585938 484.625 C 81.941406 485.910156 82.199219 487.816406 82.265625 489.230469 C 82.328125 490.882812 82.519531 492.402344 82.949219 493.988281 C 83.527344 496.152344 86.269531 495.832031 86.699219 493.773438 C 87.0625 492.058594 87.085938 490.496094 86.890625 488.761719 C 86.71875 487.195312 86.570312 485.332031 85.5625 484.046875 C 84.664062 482.910156 83.121094 483.53125 82.585938 484.625 Z M 82.585938 484.625 " fill-opacity="1" fill-rule="nonzero"/><g clip-path="url(#881f215dbd)"><path fill="#ffbd59" d="M 43.144531 511.8125 C 43.078125 515.046875 44.707031 518.089844 46.507812 520.683594 C 48.285156 523.230469 50.554688 525.460938 53.105469 527.238281 C 57.96875 530.625 63.925781 532.550781 69.839844 532.808594 C 75.835938 533.066406 81.984375 531.824219 87.257812 528.910156 C 92.503906 526.015625 96.941406 521.753906 100.175781 516.699219 C 101.953125 513.914062 103.390625 510.871094 104.394531 507.722656 C 104.929688 506.09375 105.359375 504.398438 105.636719 502.707031 C 105.894531 501.035156 106.238281 499.128906 105.703125 497.5 C 105.1875 495.957031 103.304688 495.746094 102.574219 497.265625 C 101.996094 498.488281 101.933594 499.835938 101.652344 501.164062 C 101.375 502.472656 101.074219 503.777344 100.691406 505.0625 C 99.960938 507.527344 98.976562 509.925781 97.710938 512.15625 C 95.160156 516.675781 91.648438 520.726562 87.277344 523.597656 C 78.621094 529.253906 66.925781 530.023438 57.667969 525.269531 C 54.96875 523.875 52.460938 522.011719 50.40625 519.804688 C 48.070312 517.296875 46.742188 514.382812 45.136719 511.40625 C 44.664062 510.570312 43.164062 510.71875 43.144531 511.8125 Z M 43.144531 511.8125 " fill-opacity="1" fill-rule="nonzero"/></g></svg>